<svg width="144" height="38" viewBox="0 0 144 38" fill="none" xmlns="http://www.w3.org/2000/svg">
<path d="M0 19C0 8.50659 8.50659 0 19 0C29.4934 0 38 8.50659 38 19C38 29.4934 29.4934 38 19 38C8.50659 38 0 29.4934 0 19Z" fill="#FDEFEC"/>
<path d="M30.0205 18.1514C29.9926 17.9058 29.8369 17.6926 29.6104 17.5897C28.9359 17.2831 27.9527 16.8089 27.3085 16.4958C27.644 15.8667 28.1586 14.9096 28.5227 14.268C28.645 14.0526 28.6446 13.7894 28.5217 13.5744C28.3988 13.3594 28.1713 13.224 27.9222 13.2175L24.423 13.1271C24.1068 13.119 23.775 13.1106 23.4356 13.1169C23.3368 12.7947 23.2262 12.4842 23.1205 12.1882L21.9526 8.91396C21.8695 8.68096 21.6694 8.50818 21.4253 8.45864C21.1812 8.4094 20.9288 8.49015 20.7601 8.672C20.2578 9.21382 19.4995 9.99528 19.0002 10.5063C18.501 9.99528 17.7427 9.21402 17.2403 8.672C17.0716 8.49015 16.8196 8.4094 16.5751 8.45864C16.3311 8.50818 16.1309 8.68106 16.0478 8.91396L14.8799 12.1882C14.7744 12.4842 14.6637 12.7947 14.5648 13.117C14.2255 13.1107 13.8937 13.119 13.5775 13.1271L10.0783 13.2175C9.82929 13.2239 9.60188 13.3594 9.47889 13.5744C9.356 13.7894 9.3556 14.0526 9.47788 14.268C9.84188 14.9095 10.3566 15.8666 10.6921 16.4958C10.048 16.8089 9.06476 17.283 8.39014 17.5897C8.16364 17.6926 8.00807 17.9059 7.98007 18.1514C7.95216 18.397 8.05597 18.6393 8.25365 18.7897L11.031 20.9037C11.2819 21.0947 11.5455 21.2952 11.8237 21.488C11.7128 21.8063 11.6183 22.1221 11.5284 22.423L10.5338 25.7531C10.4629 25.9901 10.5225 26.2466 10.6905 26.429C10.8587 26.6115 11.1108 26.6936 11.355 26.6444C12.0823 26.4991 13.1587 26.3091 13.8654 26.1869C13.9666 26.8916 14.1172 27.9661 14.2027 28.6974C14.2314 28.943 14.3877 29.1557 14.6145 29.2579C14.7083 29.3001 14.8085 29.321 14.9083 29.321C15.0498 29.321 15.1905 29.2791 15.3108 29.197L18.1952 27.2292C18.4559 27.0514 18.7294 26.8645 19.0002 26.6615C19.2711 26.8646 19.5446 27.0514 19.8051 27.2292L22.6896 29.197C22.81 29.2791 22.9506 29.321 23.0921 29.321C23.1919 29.321 23.2921 29.3001 23.386 29.2579C23.6128 29.1556 23.769 28.9429 23.7978 28.6974C23.8832 27.9661 24.0338 26.8916 24.1351 26.1869C24.8418 26.3091 25.9182 26.4991 26.6454 26.6444C26.89 26.6933 27.1419 26.6116 27.3099 26.429C27.4781 26.2466 27.5375 25.9901 27.4667 25.7531L26.472 22.423C26.3821 22.122 26.2876 21.8062 26.1767 21.488C26.455 21.2952 26.7185 21.0948 26.9695 20.9038L29.7469 18.7897C29.9447 18.6393 30.0484 18.397 30.0205 18.1514ZM16.2193 12.6587L16.9983 10.4748C17.7131 11.2191 18.4497 11.9663 18.4926 12.0099C18.6263 12.1454 18.8093 12.2219 19.0003 12.2219C19.1913 12.2219 19.3745 12.1454 19.508 12.0099C19.5509 11.9663 20.2875 11.2191 21.0024 10.4748L21.7813 12.6587C21.8537 12.8614 21.9265 13.0663 21.9947 13.2718C21.8847 13.2964 21.7751 13.3245 21.6661 13.3571C20.5496 13.6908 19.6158 14.4889 19.0003 15.5069C18.3849 14.4889 17.4511 13.6908 16.3345 13.3571C16.2255 13.3245 16.1158 13.2965 16.0059 13.2718C16.0741 13.0663 16.147 12.8615 16.2193 12.6587ZM22.3318 14.8914C22.3585 16.1151 21.5791 17.2964 20.4497 17.9572C20.2277 17.9895 20.0074 18.0356 19.7901 18.0957C19.7804 17.8721 19.7565 17.6499 19.7189 17.4304C20.0032 16.1605 20.8947 15.0599 22.0758 14.7069C22.1548 14.6833 22.2354 14.6636 22.3168 14.6454C22.3247 14.7277 22.3301 14.8097 22.3318 14.8914ZM19.1585 24.5822C19.1087 24.6472 19.0552 24.71 19.0003 24.7721C18.9454 24.7101 18.8919 24.6472 18.8421 24.5823C18.0957 23.6078 18.0263 22.1976 18.5484 21.0045C18.7091 20.8487 18.86 20.6825 19.0003 20.5071C19.1408 20.6825 19.2917 20.8488 19.4523 21.0046C19.9744 22.1977 19.9049 23.6079 19.1585 24.5822ZM15.6837 14.6453C15.7651 14.6634 15.8458 14.6831 15.9247 14.7068C17.1059 15.0598 17.9973 16.1604 18.2817 17.4303C18.2441 17.6498 18.2202 17.872 18.2105 18.0955C17.9933 18.0355 17.7729 17.9893 17.5508 17.957C16.4216 17.2962 15.6422 16.1149 15.6689 14.8913C15.6706 14.8097 15.676 14.7277 15.6837 14.6453ZM17.1067 19.3135C17.3054 19.4168 17.511 19.5081 17.7223 19.5863C17.5977 19.7729 17.4853 19.9668 17.3856 20.1665C16.4033 21.028 15.0303 21.3982 13.8658 20.9947C13.788 20.9678 13.7111 20.9373 13.6346 20.9046C13.6771 20.8334 13.721 20.7634 13.768 20.6962C14.4714 19.6906 15.8017 19.1894 17.1067 19.3135ZM20.2783 19.5863C20.4895 19.5082 20.6951 19.4169 20.8938 19.3136C22.1989 19.1895 23.5293 19.6906 24.2327 20.6961C24.2797 20.7634 24.3235 20.8333 24.3662 20.9045C24.2896 20.9373 24.2127 20.9678 24.135 20.9947C22.9703 21.3979 21.5973 21.0277 20.615 20.1663C20.5153 19.9666 20.4029 19.7728 20.2783 19.5863ZM11.8958 19.7852L10.0433 18.3752C10.9775 17.9306 11.9215 17.4665 11.9765 17.4395C12.1476 17.3552 12.2774 17.2062 12.3365 17.0258C12.3956 16.8455 12.3789 16.6492 12.2903 16.4812C12.2618 16.4273 11.7732 15.5013 11.2807 14.5967L13.6147 14.5363H13.6146C13.8314 14.5307 14.0501 14.5256 14.2682 14.5248C14.258 14.636 14.251 14.7481 14.2485 14.8609C14.2234 16.0177 14.6997 17.1455 15.4852 18.0409C14.3194 18.3071 13.2659 18.9418 12.601 19.8923C12.536 19.985 12.4753 20.0799 12.4176 20.1759C12.2416 20.0482 12.0679 19.9162 11.8958 19.7852ZM15.4667 27.38C15.3292 26.3609 15.176 25.3267 15.1671 25.2665C15.1393 25.0789 15.0364 24.9103 14.8819 24.7989C14.7597 24.7108 14.6134 24.6642 14.4644 24.6642C14.4248 24.6642 14.3851 24.6675 14.3456 24.6742C14.2851 24.6845 13.2464 24.8595 12.2273 25.0446L12.8908 22.8235C12.9524 22.6172 13.0151 22.4093 13.0816 22.2031C13.1852 22.2472 13.2904 22.2884 13.3978 22.3256C13.8571 22.4847 14.3384 22.5599 14.8237 22.5599C15.5015 22.5598 16.1863 22.4126 16.8278 22.1418C16.7229 23.3241 17.0056 24.5142 17.7112 25.4352C17.78 25.525 17.8523 25.6113 17.9265 25.6953C17.7494 25.8219 17.5694 25.9454 17.3906 26.0674L15.4667 27.38ZM25.11 22.8235L25.7734 25.0446C24.7543 24.8595 23.7157 24.6845 23.6552 24.6742C23.4667 24.6421 23.2734 24.6874 23.1189 24.7989C22.9643 24.9103 22.8614 25.0788 22.8336 25.2665C22.8247 25.3268 22.6715 26.3609 22.5341 27.38L20.6103 26.0675C20.4315 25.9455 20.2513 25.8221 20.0743 25.6954C20.1485 25.6113 20.2208 25.525 20.2896 25.4352C20.9951 24.5142 21.2779 23.3242 21.173 22.1419C21.8145 22.4126 22.4993 22.5599 23.177 22.5599C23.6622 22.5599 24.1437 22.4846 24.603 22.3256C24.7104 22.2884 24.8156 22.2471 24.9191 22.2031C24.9857 22.4093 25.0484 22.6172 25.11 22.8235ZM26.1049 19.7852C26.1049 19.7853 26.1049 19.7853 26.1049 19.7852C25.9328 19.9162 25.759 20.0482 25.5831 20.176C25.5254 20.0799 25.4647 19.9851 25.3997 19.8924C24.7348 18.9418 23.6813 18.3072 22.5154 18.041C23.3009 17.1456 23.7774 16.0177 23.7522 14.8609C23.7498 14.748 23.7428 14.636 23.7325 14.5247C23.9506 14.5255 24.1693 14.5307 24.386 14.5363L26.72 14.5967C26.2276 15.5012 25.7388 16.4273 25.7104 16.4812C25.6218 16.6492 25.6052 16.8455 25.6643 17.0258C25.7232 17.2062 25.8531 17.3553 26.0243 17.4395C26.0793 17.4665 27.0231 17.9306 27.9574 18.3752L26.1049 19.7852Z" fill="#F36249"/>
<path d="M46 29.5L46.28 28.24H46.644C47.036 28.24 47.4093 28.2027 47.764 28.128C48.1187 28.0347 48.4267 27.8667 48.688 27.624C48.968 27.3627 49.164 26.9613 49.276 26.42L52.188 12.672C52.2253 12.5227 52.2533 12.364 52.272 12.196C52.3093 12.028 52.328 11.9067 52.328 11.832C52.328 11.3653 52.1413 11.076 51.768 10.964C51.3947 10.8333 50.9093 10.768 50.312 10.768H49.948L50.2 9.508H57.984C60.1867 9.508 61.82 9.9 62.884 10.684C63.948 11.468 64.48 12.6533 64.48 14.24C64.48 15.192 64.3213 16.0133 64.004 16.704C63.7053 17.376 63.304 17.936 62.8 18.384C62.296 18.832 61.7453 19.196 61.148 19.476C60.5507 19.7373 59.9533 19.9333 59.356 20.064L61.344 25.86C61.6427 26.6813 61.96 27.288 62.296 27.68C62.632 28.0533 63.1173 28.24 63.752 28.24H63.948L63.696 29.5H63.36C62.2213 29.5 61.2973 29.416 60.588 29.248C59.8973 29.0613 59.3467 28.7347 58.936 28.268C58.544 27.7827 58.2173 27.1107 57.956 26.252L56.304 20.708H53.756L52.552 26.28C52.5147 26.4667 52.4773 26.644 52.44 26.812C52.4213 26.9613 52.412 27.0827 52.412 27.176C52.412 27.624 52.608 27.9133 53 28.044C53.392 28.1747 53.8773 28.24 54.456 28.24H55.38L55.1 29.5H46ZM56.08 19.308C57.0133 19.308 57.8533 19.1493 58.6 18.832C59.3467 18.496 59.9347 17.9733 60.364 17.264C60.7933 16.5547 61.008 15.6213 61.008 14.464C61.008 13.1573 60.728 12.2427 60.168 11.72C59.6267 11.1973 58.768 10.936 57.592 10.936H55.828L54.036 19.308H56.08Z" fill="#F36249"/>
<path d="M72.2299 29.78C70.5872 29.78 69.2525 29.304 68.2259 28.352C67.1992 27.3813 66.6859 25.916 66.6859 23.956C66.6859 23.1347 66.7979 22.276 67.0219 21.38C67.2459 20.4653 67.5819 19.588 68.0299 18.748C68.4779 17.8893 69.0379 17.124 69.7099 16.452C70.4005 15.7613 71.2032 15.22 72.1179 14.828C73.0512 14.4173 74.0965 14.212 75.2539 14.212C76.2805 14.212 77.2045 14.408 78.0259 14.8C78.8472 15.192 79.5005 15.8173 79.9859 16.676C80.4899 17.5347 80.7419 18.6547 80.7419 20.036C80.7419 20.8387 80.6299 21.688 80.4059 22.584C80.2005 23.4613 79.8739 24.3293 79.4259 25.188C78.9965 26.0467 78.4459 26.8213 77.7739 27.512C77.1019 28.184 76.2992 28.7347 75.3659 29.164C74.4512 29.5747 73.4059 29.78 72.2299 29.78ZM72.5939 28.184C73.2845 28.184 73.8912 27.988 74.4139 27.596C74.9552 27.204 75.4125 26.6907 75.7859 26.056C76.1779 25.4027 76.4952 24.6933 76.7379 23.928C76.9805 23.144 77.1579 22.3693 77.2699 21.604C77.3819 20.82 77.4379 20.1013 77.4379 19.448C77.4379 18.1227 77.2045 17.18 76.7379 16.62C76.2899 16.0413 75.6739 15.752 74.8899 15.752C74.1992 15.752 73.5832 15.948 73.0419 16.34C72.5192 16.732 72.0619 17.2547 71.6699 17.908C71.2779 18.5427 70.9605 19.2427 70.7179 20.008C70.4752 20.7733 70.2885 21.548 70.1579 22.332C70.0459 23.116 69.9899 23.844 69.9899 24.516C69.9899 25.3933 70.0925 26.1027 70.2979 26.644C70.5219 27.1853 70.8205 27.5773 71.1939 27.82C71.5859 28.0627 72.0525 28.184 72.5939 28.184Z" fill="#F36249"/>
<path d="M87.3481 29.78C86.3775 29.78 85.5281 29.6587 84.8001 29.416C84.0908 29.1547 83.5401 28.7907 83.1481 28.324C82.7561 27.8573 82.5601 27.2973 82.5601 26.644C82.5601 26.1213 82.6721 25.72 82.8961 25.44C83.1201 25.1413 83.3908 24.936 83.7081 24.824C84.0441 24.712 84.3615 24.656 84.6601 24.656C84.6601 25.3093 84.7535 25.916 84.9401 26.476C85.1455 27.036 85.4721 27.4933 85.9201 27.848C86.3868 28.184 86.9935 28.352 87.7401 28.352C88.3188 28.352 88.8321 28.2587 89.2801 28.072C89.7281 27.8853 90.0641 27.6147 90.2881 27.26C90.5308 26.8867 90.6521 26.4293 90.6521 25.888C90.6521 25.2347 90.4281 24.684 89.9801 24.236C89.5321 23.788 88.7855 23.3307 87.7401 22.864C86.6948 22.36 85.8548 21.7813 85.2201 21.128C84.6041 20.4747 84.2961 19.588 84.2961 18.468C84.2961 17.6467 84.5201 16.9187 84.9681 16.284C85.4348 15.6493 86.0881 15.1547 86.9281 14.8C87.7868 14.4267 88.7948 14.24 89.9521 14.24C91.0535 14.24 91.9308 14.3707 92.5841 14.632C93.2561 14.8747 93.7508 15.2013 94.0681 15.612C94.3855 16.0227 94.5441 16.4427 94.5441 16.872C94.5441 17.5067 94.3295 17.9733 93.9001 18.272C93.4708 18.5707 92.8828 18.72 92.1361 18.72C92.1361 18.216 92.0521 17.7307 91.8841 17.264C91.7348 16.7787 91.4828 16.3773 91.1281 16.06C90.7921 15.7427 90.3161 15.584 89.7001 15.584C88.8975 15.584 88.2628 15.808 87.7961 16.256C87.3295 16.6853 87.0961 17.2267 87.0961 17.88C87.0961 18.5147 87.3295 19.0373 87.7961 19.448C88.2815 19.84 89.0281 20.26 90.0361 20.708C91.1188 21.212 91.9495 21.8 92.5281 22.472C93.1255 23.144 93.4241 24.0213 93.4241 25.104C93.4241 26.0187 93.1815 26.8307 92.6961 27.54C92.2295 28.2493 91.5388 28.8 90.6241 29.192C89.7281 29.584 88.6361 29.78 87.3481 29.78Z" fill="#F36249"/>
<path d="M102.147 29.78C101.121 29.78 100.169 29.5653 99.2912 29.136C98.4326 28.7067 97.7419 28.072 97.2192 27.232C96.7152 26.3733 96.4632 25.2907 96.4632 23.984C96.4632 23.1627 96.5845 22.304 96.8272 21.408C97.0699 20.4933 97.4246 19.616 97.8912 18.776C98.3579 17.9173 98.9366 17.1427 99.6272 16.452C100.337 15.7613 101.149 15.22 102.063 14.828C102.978 14.4173 103.995 14.212 105.115 14.212C106.347 14.212 107.299 14.5013 107.971 15.08C108.643 15.64 108.979 16.4333 108.979 17.46C108.979 18.4307 108.625 19.3453 107.915 20.204C107.225 21.0627 106.263 21.7627 105.031 22.304C103.799 22.8267 102.39 23.088 100.803 23.088H99.8232C99.8046 23.2747 99.7859 23.4707 99.7672 23.676C99.7672 23.8627 99.7672 24.0493 99.7672 24.236C99.7672 25.3933 100.019 26.2987 100.523 26.952C101.046 27.5867 101.811 27.904 102.819 27.904C103.734 27.904 104.537 27.6893 105.227 27.26C105.937 26.812 106.487 26.336 106.879 25.832C107.085 26 107.187 26.28 107.187 26.672C107.187 27.0827 107.001 27.5307 106.627 28.016C106.273 28.5013 105.722 28.9213 104.975 29.276C104.247 29.612 103.305 29.78 102.147 29.78ZM100.327 21.716C101.373 21.716 102.306 21.5387 103.127 21.184C103.949 20.8293 104.593 20.344 105.059 19.728C105.545 19.0933 105.787 18.356 105.787 17.516C105.787 16.9 105.647 16.4333 105.367 16.116C105.106 15.7987 104.723 15.64 104.219 15.64C103.734 15.64 103.258 15.8173 102.791 16.172C102.343 16.5267 101.933 17.0027 101.559 17.6C101.205 18.1973 100.897 18.8507 100.635 19.56C100.393 20.2693 100.197 20.988 100.047 21.716H100.327Z" fill="#F36249"/>
<path d="M113.904 29.78C113.064 29.78 112.42 29.5187 111.972 28.996C111.524 28.4733 111.3 27.8293 111.3 27.064C111.3 26.7093 111.328 26.2893 111.384 25.804C111.44 25.3187 111.515 24.824 111.608 24.32C111.701 23.7973 111.785 23.34 111.86 22.948L114.184 12C114.24 11.7387 114.287 11.4867 114.324 11.244C114.361 11.0013 114.38 10.8427 114.38 10.768C114.38 10.208 114.203 9.85333 113.848 9.704C113.512 9.55467 113.073 9.48 112.532 9.48H112.14L112.392 8.22H118.076L114.828 23.508C114.772 23.7507 114.707 24.0587 114.632 24.432C114.576 24.8053 114.52 25.1787 114.464 25.552C114.408 25.9253 114.38 26.2427 114.38 26.504C114.38 26.952 114.464 27.2973 114.632 27.54C114.8 27.764 115.033 27.876 115.332 27.876C115.631 27.876 115.939 27.8107 116.256 27.68C116.573 27.5493 116.9 27.3813 117.236 27.176L117.796 28.044C117.367 28.4173 116.807 28.8 116.116 29.192C115.425 29.584 114.688 29.78 113.904 29.78Z" fill="#F36249"/>
<path d="M122.818 29.78C121.978 29.78 121.334 29.5187 120.886 28.996C120.438 28.4733 120.214 27.8293 120.214 27.064C120.214 26.7093 120.242 26.2893 120.298 25.804C120.354 25.3187 120.429 24.824 120.522 24.32C120.615 23.7973 120.699 23.34 120.774 22.948L123.098 12C123.154 11.7387 123.201 11.4867 123.238 11.244C123.275 11.0013 123.294 10.8427 123.294 10.768C123.294 10.208 123.117 9.85333 122.762 9.704C122.426 9.55467 121.987 9.48 121.446 9.48H121.054L121.306 8.22H126.99L123.742 23.508C123.686 23.7507 123.621 24.0587 123.546 24.432C123.49 24.8053 123.434 25.1787 123.378 25.552C123.322 25.9253 123.294 26.2427 123.294 26.504C123.294 26.952 123.378 27.2973 123.546 27.54C123.714 27.764 123.947 27.876 124.246 27.876C124.545 27.876 124.853 27.8107 125.17 27.68C125.487 27.5493 125.814 27.3813 126.15 27.176L126.71 28.044C126.281 28.4173 125.721 28.8 125.03 29.192C124.339 29.584 123.602 29.78 122.818 29.78Z" fill="#F36249"/>
<path d="M132.152 29.78C131.312 29.78 130.612 29.556 130.052 29.108C129.511 28.66 129.1 28.0533 128.82 27.288C128.559 26.504 128.428 25.6267 128.428 24.656C128.428 23.7787 128.54 22.864 128.764 21.912C129.007 20.9413 129.361 20.008 129.828 19.112C130.313 18.1973 130.892 17.376 131.564 16.648C132.255 15.9013 133.039 15.3133 133.916 14.884C134.812 14.436 135.811 14.212 136.912 14.212C137.36 14.212 137.799 14.2587 138.228 14.352C138.657 14.4267 139.059 14.5387 139.432 14.688C139.805 14.8373 140.113 15.0147 140.356 15.22L141.672 14.52H142.708L140.832 23.424C140.795 23.6293 140.739 23.928 140.664 24.32C140.589 24.6933 140.524 25.0853 140.468 25.496C140.412 25.888 140.384 26.2147 140.384 26.476C140.384 26.9427 140.468 27.2973 140.636 27.54C140.804 27.7827 141.037 27.904 141.336 27.904C141.635 27.904 141.933 27.8387 142.232 27.708C142.549 27.5587 142.885 27.3907 143.24 27.204L143.772 28.1C143.492 28.3427 143.128 28.5947 142.68 28.856C142.232 29.1173 141.747 29.332 141.224 29.5C140.72 29.6867 140.207 29.78 139.684 29.78C138.975 29.78 138.405 29.584 137.976 29.192C137.565 28.7813 137.36 28.212 137.36 27.484C137.36 27.1293 137.379 26.8027 137.416 26.504C137.453 26.2053 137.519 25.832 137.612 25.384H137.416C136.987 26.3173 136.511 27.1107 135.988 27.764C135.484 28.4173 134.915 28.9213 134.28 29.276C133.664 29.612 132.955 29.78 132.152 29.78ZM133.356 27.876C133.823 27.876 134.299 27.6987 134.784 27.344C135.288 26.9707 135.755 26.476 136.184 25.86C136.632 25.244 137.024 24.5533 137.36 23.788C137.715 23.004 137.967 22.22 138.116 21.436L139.152 16.564C138.947 16.2467 138.657 16.0133 138.284 15.864C137.911 15.696 137.519 15.612 137.108 15.612C136.38 15.612 135.727 15.8173 135.148 16.228C134.588 16.6387 134.084 17.1893 133.636 17.88C133.207 18.552 132.843 19.2987 132.544 20.12C132.245 20.9227 132.021 21.7347 131.872 22.556C131.741 23.3587 131.676 24.0867 131.676 24.74C131.676 25.8787 131.835 26.6907 132.152 27.176C132.488 27.6427 132.889 27.876 133.356 27.876Z" fill="#F36249"/>
</svg>
